<svg id="Capa_1" enable-background="new 0 0 499.965 499.965" height="512" viewBox="0 0 499.965 499.965" width="512" xmlns="http://www.w3.org/2000/svg"><g><path d="m233.973 411.422v-24.854c0-4.16-.331-8.351-.984-12.456-1.228-7.711-3.589-15.194-7.021-22.241-1.813-3.723-6.303-5.271-10.026-3.459-3.725 1.813-5.273 6.303-3.46 10.027 2.783 5.715 4.698 11.782 5.693 18.031.529 3.328.798 6.725.798 10.098v18.063c-.645-.052-108.993-.085-108.993-.085l-22.438-13.924c-22.131-13.732-40.522-33.021-53.186-55.782s-19.356-48.557-19.356-74.603v-75.43c0-7.147 5.814-12.961 12.962-12.961s12.962 5.814 12.962 12.961v78.175c0 9.879 4.033 19.526 11.065 26.466l2.27 2.239c1.021 6.164 4.048 12.041 9.023 16.599l62.403 57.182c1.439 1.319 3.254 1.97 5.064 1.97 2.029 0 4.053-.819 5.531-2.433 2.799-3.054 2.592-7.798-.462-10.597l-62.404-57.182c-5.536-5.072-6.069-13.534-1.216-19.263 4.847-5.718 13.272-6.587 19.184-1.976l49.482 38.605c.722.563 1.542.99 2.417 1.258l30.232 9.257c7.597 2.326 14.625 6.003 20.89 10.927 3.255 2.56 7.971 1.995 10.531-1.261s1.995-7.972-1.262-10.531c-7.725-6.073-16.394-10.607-25.767-13.478l-25.222-7.722v-40.428c0-18.229-13-33.477-30.215-36.964v-5.372c0-13.309-10.828-24.137-24.137-24.137-3.233 0-6.316.643-9.137 1.801v-1.323c0-13.309-10.828-24.137-24.137-24.137-3.914 0-7.61.942-10.882 2.603-3.958-10.64-14.215-18.241-26.216-18.241-15.415.001-27.959 12.545-27.959 27.963v75.43c0 28.592 7.348 56.911 21.249 81.896 13.9 24.985 34.09 46.16 58.385 61.235l11.056 6.861c-5.356 4.48-8.77 11.207-8.77 18.719v54.361c0 4.142 3.357 7.5 7.5 7.5s7.5-3.358 7.5-7.5v-54.361c0-5.184 4.218-9.402 9.402-9.402h110.696c5.184 0 9.401 4.218 9.401 9.402v54.361c0 4.142 3.357 7.5 7.5 7.5s7.5-3.358 7.5-7.5v-54.361c.001-6.873-2.859-13.086-7.446-17.526zm-96.287-148.808v30.473l-15.215-11.87v-40.04c8.85 3.106 15.215 11.54 15.215 21.437zm-39.352-51.473c5.038 0 9.137 4.099 9.137 9.137v49.236l-6.861-5.353c-3.48-2.715-7.381-4.514-11.412-5.431v-38.453c-.001-5.037 4.098-9.136 9.136-9.136zm-33.273-23.658c5.038 0 9.137 4.099 9.137 9.137v62.715c-5.063 1.583-9.752 4.578-13.441 8.932-1.057 1.247-1.983 2.56-2.795 3.917-1.311-2.874-2.037-6.012-2.037-9.202v-66.363c-.001-5.038 4.097-9.136 9.136-9.136z"/><path d="m472.003 156.845c-12.001 0-22.258 7.601-26.216 18.24-3.272-1.66-6.968-2.603-10.882-2.603-13.309 0-24.137 10.828-24.137 24.137v1.323c-2.82-1.158-5.904-1.801-9.137-1.801-13.309 0-24.137 10.828-24.137 24.137v5.372c-17.215 3.488-30.215 18.735-30.215 36.964v40.428l-25.222 7.722c-28.738 8.8-50.359 33.666-55.08 63.347-.654 4.105-.985 8.296-.985 12.456v24.854c-4.587 4.439-7.447 10.653-7.447 17.525v54.361c0 4.142 3.357 7.5 7.5 7.5s7.5-3.358 7.5-7.5v-54.361c0-5.184 4.218-9.402 9.401-9.402h110.696c5.185 0 9.402 4.218 9.402 9.402v54.361c0 4.142 3.357 7.5 7.5 7.5s7.5-3.358 7.5-7.5v-54.361c0-7.512-3.414-14.239-8.77-18.719l11.056-6.86c13.962-8.663 26.563-19.311 37.453-31.647 2.742-3.105 2.447-7.845-.658-10.586s-7.846-2.446-10.586.659c-9.922 11.239-21.4 20.938-34.117 28.829l-22.438 13.923s-108.347.034-108.993.085v-18.063c0-3.373.269-6.771.799-10.099 3.828-24.066 21.357-44.227 44.659-51.361l30.232-9.257c.875-.268 1.695-.695 2.417-1.258l49.482-38.605c5.91-4.612 14.337-3.742 19.184 1.976 4.854 5.729 4.32 14.19-1.217 19.263l-62.403 57.182c-3.054 2.798-3.261 7.543-.462 10.597 2.797 3.054 7.541 3.261 10.597.463l62.402-57.182c4.976-4.559 8.003-10.436 9.024-16.6l2.27-2.239c7.031-6.939 11.064-16.586 11.064-26.465v-78.175c0-7.147 5.814-12.961 12.962-12.961s12.962 5.814 12.962 12.961v75.43c0 26.895-7.126 53.441-20.607 76.77-2.073 3.586-.846 8.174 2.74 10.247 1.183.683 2.473 1.008 3.746 1.008 2.591 0 5.111-1.344 6.5-3.749 14.799-25.607 22.621-54.749 22.621-84.275v-75.43c.002-15.419-12.542-27.963-27.96-27.963zm-94.509 84.332v40.04l-15.215 11.87v-30.473c0-9.897 6.365-18.331 15.215-21.437zm21.861 22.984-6.861 5.353v-49.236c0-5.038 4.099-9.137 9.137-9.137s9.137 4.099 9.137 9.137v38.453c-4.032.916-7.932 2.715-11.413 5.43zm26.413-4.826v-62.715c0-5.038 4.099-9.137 9.137-9.137 5.032 0 9.125 4.088 9.137 9.116v66.383c0 3.189-.726 6.328-2.037 9.201-.812-1.357-1.738-2.669-2.795-3.917-3.69-4.353-8.379-7.348-13.442-8.931z"/><path d="m390.446 168.74c16.669-16.741 26.327-38.961 27.197-62.569.871-23.607-7.126-46.479-22.53-64.417-.107-.125-.218-.247-.336-.373-2.707-3.137-7.443-3.486-10.577-.78-3.137 2.706-3.486 7.441-.78 10.578.108.126.22.249.327.363 12.923 15.049 19.638 34.254 18.907 54.076-.73 19.823-8.841 38.481-22.837 52.538l-124.702 125.241c-1.503 1.509-3.503 2.34-5.633 2.34s-4.13-.831-5.633-2.34l-124.702-125.241c-13.996-14.057-22.106-32.715-22.837-52.538-.73-19.822 5.984-39.027 18.907-54.076 12.975-15.11 31.021-24.659 50.813-26.887 19.786-2.231 39.508 3.068 55.519 14.915l19.98 14.784c4.757 3.52 11.149 3.521 15.906 0l19.98-14.784c23.952-17.722 56.516-20.299 82.961-6.571 3.676 1.908 8.203.476 10.112-3.201s.476-8.204-3.2-10.112c-15.346-7.966-32.591-11.525-49.884-10.288-17.694 1.266-34.607 7.529-48.911 18.113l-19.012 14.067-19.012-14.067c-19.066-14.107-42.544-20.417-66.117-17.761-23.57 2.654-45.062 14.025-60.515 32.02-15.39 17.922-23.387 40.794-22.516 64.401.87 23.607 10.528 45.828 27.197 62.569l124.702 125.241c4.338 4.357 10.113 6.757 16.262 6.757s11.924-2.399 16.262-6.756z"/></g></svg>